<svg width="47" height="47" viewBox="0 0 47 47" fill="none" xmlns="http://www.w3.org/2000/svg">
<circle cx="23.5" cy="23.5" r="23.5" fill="white"/>
<path d="M32.5798 14.1877L32.5792 14.1877C32.0825 14.1966 31.499 14.3356 30.3299 14.7598C29.1522 15.1872 27.327 15.9252 24.3241 17.1742C22.2157 18.0511 18.0079 19.8637 11.7044 22.61C11.1778 22.8198 10.7448 23.0392 10.4279 23.2745C10.1226 23.5013 9.84088 23.8057 9.79083 24.2049C9.7553 24.4883 9.81943 24.7504 9.97215 24.975C10.1152 25.1853 10.3178 25.3365 10.5202 25.4517C10.9033 25.6697 11.4327 25.8361 11.9597 26.0017L12.0021 26.015C12.1551 26.0632 12.3112 26.1122 12.4708 26.1641C13.0301 26.3459 13.6894 26.5443 14.3102 26.7C14.9194 26.8528 15.5312 26.9748 15.9782 26.9845C16.8235 27.0027 17.7081 26.6549 18.617 26.0311C21.5629 24.0426 23.7949 22.5467 25.3138 21.5427C26.0295 21.0697 26.5851 20.707 26.9817 20.454C26.6573 20.7879 26.2341 21.2039 25.7657 21.6549C24.7405 22.6419 23.5156 23.7806 22.6774 24.5599L22.6272 24.6066C22.1403 25.0593 21.7747 25.3991 21.6892 25.4879C21.5271 25.6563 21.3608 25.8167 21.1937 25.9778L21.181 25.99C20.9339 26.2282 20.6761 26.4767 20.47 26.7265C20.2618 26.979 20.0661 27.2793 19.997 27.6293C19.8414 28.4178 20.3652 29.0771 21.3082 29.6985C22.1883 30.2785 22.8926 30.7581 23.598 31.2385L23.5988 31.239C24.369 31.7635 25.1404 32.2889 26.1383 32.943C26.3821 33.1028 26.6162 33.2696 26.853 33.4384C26.875 33.4541 26.8971 33.4699 26.9192 33.4857C27.7615 34.0868 28.7044 34.7598 29.8862 34.651C30.8228 34.5648 31.4984 33.6958 31.8107 32.0266C32.5272 28.196 33.9405 19.8717 34.2686 16.4246C34.3025 16.068 34.2612 15.638 34.2275 15.441C34.1933 15.2414 34.1066 14.8472 33.7417 14.5511L33.4266 14.9394L33.7417 14.5511C33.5326 14.3815 33.2886 14.2938 33.0935 14.2472C32.8953 14.1998 32.7084 14.1856 32.5798 14.1877ZM27.5556 19.8128C27.558 19.8084 27.5595 19.8059 27.5599 19.8055C27.5603 19.8051 27.5591 19.8074 27.5556 19.8128ZM23.5 46.5C10.7975 46.5 0.5 36.2025 0.5 23.5C0.5 10.7975 10.7975 0.5 23.5 0.5C36.2025 0.5 46.5 10.7975 46.5 23.5C46.5 36.2025 36.2025 46.5 23.5 46.5Z" fill="black" stroke="black"/>
</svg>
