<svg width="47" height="47" viewBox="0 0 47 47" fill="none" xmlns="http://www.w3.org/2000/svg">
<rect x="11" y="11" width="25" height="25" rx="6" fill="white"/>
<path d="M15.7137 18.9018C15.839 25.0118 18.894 28.6778 24.252 28.6778H24.5653V25.1841C26.5315 25.38 28.0198 26.8213 28.6152 28.6778H31.396C31.1108 27.6229 30.6052 26.6404 29.9125 25.7951C29.2198 24.9499 28.3558 24.2611 27.3775 23.7741C28.2542 23.2403 29.0113 22.5314 29.6017 21.6917C30.192 20.852 30.6028 19.8996 30.8085 18.894H28.2862C27.7378 20.8366 26.1085 22.5991 24.5653 22.7636V18.9018H22.0352V25.6698C20.4685 25.2781 18.4945 23.3825 18.4083 18.9018H15.7137Z" fill="black"/>
<path fill-rule="evenodd" clip-rule="evenodd" d="M23.5 0C36.4787 0 47 10.5213 47 23.5C47 36.4787 36.4787 47 23.5 47C10.5213 47 0 36.4787 0 23.5C0 10.5213 10.5213 0 23.5 0ZM11.75 23.03C11.75 17.7112 11.75 15.0557 13.395 13.395C15.0635 11.75 17.719 11.75 23.03 11.75H23.97C29.2888 11.75 31.9443 11.75 33.605 13.395C35.25 15.0635 35.25 17.719 35.25 23.03V23.97C35.25 29.2888 35.25 31.9443 33.605 33.605C31.9365 35.25 29.281 35.25 23.97 35.25H23.03C17.7112 35.25 15.0557 35.25 13.395 33.605C11.75 31.9365 11.75 29.281 11.75 23.97V23.03Z" fill="black"/>
</svg>
