<svg width="47" height="47" viewBox="0 0 47 47" fill="none" xmlns="http://www.w3.org/2000/svg">
<circle cx="23.5" cy="23.5" r="23.5" fill="white"/>
<path d="M32.7436 15.2349L32.7356 15.2326L32.7275 15.2306C32.2367 15.1078 31.3943 15.0236 30.4494 14.962C29.4901 14.8994 28.3813 14.8579 27.3319 14.8303C26.2818 14.8026 25.2874 14.7888 24.5558 14.7819C24.1899 14.7785 23.8895 14.7767 23.6805 14.7759C23.576 14.7754 23.4943 14.7752 23.4386 14.7751L23.3751 14.775L23.3588 14.775L23.3546 14.775H23.3535H23.3532C23.3532 14.775 23.3531 14.775 23.3531 15.275C23.3531 14.775 23.3531 14.775 23.353 14.775H23.3527H23.3517L23.3475 14.775L23.3315 14.775L23.2692 14.7751C23.2146 14.7752 23.1344 14.7754 23.0317 14.7759C22.8264 14.7767 22.5312 14.7785 22.171 14.7819C21.4509 14.7888 20.4703 14.8026 19.4293 14.8303C18.389 14.8579 17.285 14.8994 16.319 14.9619C15.3646 15.0237 14.5096 15.108 13.9876 15.2284L13.975 15.2313L13.9626 15.2349C12.7684 15.5761 11.9042 16.4403 11.563 17.6345L11.5543 17.6648L11.5496 17.6959C11.3975 18.6841 11.3237 20.1438 11.287 21.3366C11.2685 21.9372 11.2592 22.4775 11.2546 22.8676C11.2523 23.0627 11.2512 23.2204 11.2506 23.3295L11.2501 23.4554L11.25 23.4884L11.25 23.4969L11.25 23.4992V23.4998V23.4999L11.75 23.5C11.25 23.5 11.25 23.5 11.25 23.5001V23.5003V23.5009L11.25 23.5032L11.25 23.5119L11.2501 23.5452C11.2502 23.5743 11.2504 23.617 11.2509 23.6718C11.2517 23.7814 11.2535 23.9397 11.257 24.1354C11.2639 24.5267 11.2778 25.0686 11.3056 25.6711C11.3607 26.8639 11.4718 28.337 11.7034 29.3406L11.7063 29.3531L11.7099 29.3655C12.0511 30.5597 12.9153 31.4239 14.1095 31.7651L14.1175 31.7674L14.1256 31.7694C14.6165 31.8922 15.4588 31.9764 16.4037 32.0381C17.363 32.1006 18.4718 32.1421 19.5212 32.1698C20.5714 32.1974 21.5657 32.2112 22.2973 32.2181C22.6632 32.2215 22.9636 32.2233 23.1726 32.2241C23.2771 32.2246 23.3588 32.2248 23.4145 32.2249L23.478 32.225L23.4943 32.225H23.4985H23.4996H23.4999C23.5 32.225 23.5 32.225 23.5 31.725C23.5 32.225 23.5 32.225 23.5001 32.225H23.5004H23.5015H23.5056L23.5216 32.225L23.5839 32.2249C23.6385 32.2248 23.7187 32.2246 23.8214 32.2241C24.0267 32.2233 24.3219 32.2215 24.6821 32.2181C25.4022 32.2112 26.3828 32.1974 27.4238 32.1697C28.4641 32.1421 29.5681 32.1006 30.5341 32.0381C31.4885 31.9763 32.3435 31.892 32.8655 31.7716L32.8781 31.7687L32.8905 31.7651C34.0847 31.4239 34.9489 30.5597 35.2902 29.3655L35.2937 29.3531L35.2966 29.3406C35.5282 28.337 35.6393 26.8639 35.6944 25.6711C35.7222 25.0685 35.7361 24.5266 35.743 24.1354C35.7465 23.9397 35.7483 23.7814 35.7491 23.6718C35.7496 23.617 35.7498 23.5743 35.7499 23.5452L35.75 23.5119L35.75 23.5032V23.5009V23.5003V23.5001C35.75 23.5 35.75 23.5 35.25 23.5C35.75 23.5 35.75 23.5 35.75 23.4999V23.4997V23.499L35.75 23.4966L35.75 23.4878L35.7499 23.4541C35.7497 23.4248 35.7494 23.3819 35.7488 23.3269C35.7477 23.2168 35.7453 23.058 35.7407 22.8617C35.7314 22.4693 35.7128 21.9257 35.6756 21.3212C35.6023 20.1297 35.4539 18.6469 35.1419 17.6296C34.7997 16.4379 33.9362 15.5756 32.7436 15.2349ZM21.65 26.1634V20.8366L26.311 23.5L21.65 26.1634ZM0.5 23.5C0.5 10.7975 10.7975 0.5 23.5 0.5C36.2025 0.5 46.5 10.7975 46.5 23.5C46.5 36.2025 36.2025 46.5 23.5 46.5C10.7975 46.5 0.5 36.2025 0.5 23.5Z" fill="black" stroke="black"/>
</svg>
